# Blender v2.76 (sub 0) OBJ File: 'CarrotLowPoly.blend'
# www.blender.org
mtllib CarrotLowPoly.mtl
o Cube
v 0.028764 -1.259233 -0.907012
v -0.424741 -1.259233 -0.785495
v -0.756731 -1.259233 -0.453506
v -0.878247 -1.259233 0.000000
v -0.756731 -1.259233 0.453506
v -0.424741 -1.259233 0.785495
v 0.028764 -1.259233 0.907012
v 0.482270 -1.259233 0.785495
v 0.814259 -1.259233 0.453506
v 0.955726 -1.259233 0.000000
v 0.814260 -1.259233 -0.453505
v 0.482271 -1.259233 -0.785495
v 0.039592 0.567479 -1.000000
v -0.460408 0.567479 -0.866025
v -0.826434 0.567479 -0.500000
v -0.926041 0.567479 0.000000
v -0.826434 0.567479 0.500000
v -0.460408 0.567479 0.866025
v 0.039591 0.567479 1.000000
v 0.539591 0.567479 0.866026
v 0.905617 0.567479 0.500000
v 1.039592 0.567479 0.000000
v 0.905617 0.567479 -0.499999
v 0.539592 0.567479 -0.866025
v 0.039592 1.016184 -0.876337
v -0.398577 1.016184 -0.758930
v -0.719339 1.016184 -0.438168
v -0.836745 1.016184 0.000000
v -0.719339 1.016184 0.438169
v -0.398577 1.016184 0.758930
v 0.039591 1.016184 0.876337
v 0.477760 1.016184 0.758930
v 0.798521 1.016184 0.438169
v 0.915928 1.016184 0.000000
v 0.798522 1.016184 -0.438168
v 0.477761 1.016184 -0.758930
v 0.039592 1.333131 -0.600031
v -0.260166 1.345566 -0.519642
v -0.479604 1.354670 -0.300016
v -0.559924 1.358002 0.000000
v -0.479604 1.354670 0.300016
v -0.260166 1.345566 0.519642
v 0.039591 1.333131 0.600031
v 0.339349 1.320695 0.519642
v 0.558787 1.311592 0.300016
v 0.658201 1.308260 0.000000
v 0.558788 1.311592 -0.300015
v 0.339350 1.320695 -0.519642
v 0.039592 1.428596 -0.381047
v -0.150233 1.444900 -0.329997
v -0.289195 1.456836 -0.190524
v -0.340058 1.461204 0.000000
v -0.289195 1.456836 0.190524
v -0.150233 1.444900 0.329997
v 0.039592 1.428596 0.381047
v 0.229416 1.412293 0.329997
v 0.368378 1.400358 0.190524
v 0.419241 1.395989 0.000000
v 0.368378 1.400358 -0.190523
v 0.229417 1.412293 -0.329996
v 0.039592 1.461744 -0.150766
v -0.035515 1.468195 -0.130568
v -0.090497 1.472917 -0.075383
v -0.110622 1.474646 0.000000
v -0.090497 1.472917 0.075383
v -0.035515 1.468195 0.130568
v 0.039592 1.461744 0.150767
v 0.114698 1.455294 0.130568
v 0.169680 1.450571 0.075383
v 0.189805 1.448843 0.000000
v 0.169680 1.450571 -0.075383
v 0.114698 1.455294 -0.130568
v 0.039592 1.473356 0.000000
v -0.010394 -3.824769 -0.670524
v -0.345656 -3.824769 -0.580691
v -0.591085 -3.824769 -0.335262
v -0.680918 -3.824769 0.000000
v -0.591085 -3.824769 0.335262
v -0.345656 -3.824769 0.580691
v -0.010394 -3.824769 0.670525
v 0.324868 -3.824769 0.580691
v 0.570297 -3.824769 0.335263
v 0.674879 -3.824769 0.000000
v 0.570298 -3.824769 -0.335262
v 0.324869 -3.824769 -0.580691
v 0.013683 -5.843940 -0.495201
v -0.233918 -5.843940 -0.428857
v -0.415174 -5.843940 -0.247601
v -0.481519 -5.843940 0.000000
v -0.415174 -5.843940 0.247601
v -0.233918 -5.843940 0.428857
v 0.013682 -5.843940 0.495201
v 0.261283 -5.843940 0.428857
v 0.442539 -5.843940 0.247601
v 0.519776 -5.843940 0.000000
v 0.442539 -5.843940 -0.247600
v 0.261283 -5.843940 -0.428856
v 0.013902 -6.860124 -0.375341
v -0.173768 -6.860124 -0.325055
v -0.311152 -6.860124 -0.187670
v -0.361439 -6.860124 0.000000
v -0.311152 -6.860124 0.187671
v -0.173768 -6.860124 0.325055
v 0.013902 -6.860124 0.375341
v 0.201573 -6.860124 0.325055
v 0.338957 -6.860124 0.187671
v 0.397499 -6.860124 0.000000
v 0.338957 -6.860124 -0.187670
v 0.201573 -6.860124 -0.325054
v 0.038403 -7.223047 -0.308410
v -0.115802 -7.223047 -0.267091
v -0.228688 -7.223047 -0.154205
v -0.270007 -7.223047 0.000000
v -0.228688 -7.223047 0.154205
v -0.115802 -7.223047 0.267091
v 0.038403 -7.223047 0.308410
v 0.192608 -7.223047 0.267091
v 0.305494 -7.223047 0.154205
v 0.353597 -7.223047 0.000000
v 0.305494 -7.223047 -0.154205
v 0.192608 -7.223047 -0.267091
v 0.038678 -7.424715 -0.160430
v -0.040669 -7.436490 -0.138937
v -0.098754 -7.445110 -0.080215
v -0.120015 -7.448266 0.000000
v -0.098754 -7.445110 0.080215
v -0.040669 -7.436490 0.138937
v 0.038678 -7.424715 0.160431
v 0.118024 -7.412939 0.138937
v 0.176109 -7.404318 0.080216
v 0.200861 -7.400645 0.000000
v 0.176109 -7.404318 -0.080215
v 0.118024 -7.412939 -0.138937
v 0.057176 -7.534667 -0.067097
v 0.023991 -7.539591 -0.058108
v -0.000302 -7.543196 -0.033548
v -0.009194 -7.544516 0.000000
v -0.000302 -7.543196 0.033549
v 0.023991 -7.539591 0.058108
v 0.057176 -7.534667 0.067097
v 0.090361 -7.529741 0.058108
v 0.114654 -7.526136 0.033549
v 0.125006 -7.524600 0.000000
v 0.114654 -7.526136 -0.033548
v 0.090361 -7.529741 -0.058108
v 0.070557 -7.618623 0.000000
vt 0.751488 0.468517
vt 0.848531 0.644012
vt 0.802081 0.656893
vt 0.707982 0.503393
vt 0.630377 0.569339
vt 0.731752 0.692354
vt 0.704285 0.715621
vt 0.595222 0.602400
vt 0.456536 0.753392
vt 0.626970 0.857956
vt 0.614426 0.916304
vt 0.417071 0.798812
vt 0.527042 0.672606
vt 0.659396 0.774279
vt 0.641776 0.811938
vt 0.492647 0.711428
vt 0.798765 0.430268
vt 0.907896 0.634474
vt 0.667819 0.536576
vt 0.763990 0.673027
vt 0.560998 0.636388
vt 0.680045 0.742591
vt 0.850600 0.386047
vt 0.989344 0.626949
vt 0.601052 0.992545
vt 0.371751 0.848355
vt 0.679114 0.822836
vt 0.673283 0.864403
vt 0.706353 0.761073
vt 0.690480 0.789054
vt 0.977044 0.713926
vt 0.907157 0.695104
vt 0.812967 0.694219
vt 0.778744 0.704064
vt 0.726414 0.738263
vt 0.675186 0.917702
vt 0.690576 0.992694
vt 0.854607 0.690378
vt 0.749934 0.718713
vt 0.789425 0.736000
vt 0.766488 0.745991
vt 0.716306 0.828316
vt 0.717880 0.861239
vt 0.732869 0.778493
vt 0.722019 0.801026
vt 0.935797 0.782676
vt 0.888158 0.749056
vt 0.816838 0.731393
vt 0.747765 0.760288
vt 0.731196 0.901192
vt 0.764020 0.951863
vt 0.849424 0.734300
vt 0.794925 0.757723
vt 0.776742 0.764215
vt 0.741622 0.828586
vt 0.747010 0.852842
vt 0.750725 0.789361
vt 0.743587 0.807321
vt 0.886750 0.812819
vt 0.865048 0.779794
vt 0.816172 0.756535
vt 0.761736 0.774726
vt 0.763376 0.878785
vt 0.796439 0.902020
vt 0.840040 0.762755
vt 0.829337 0.804970
vt 0.820899 0.793837
vt 0.799342 0.786395
vt 0.789192 0.788693
vt 0.773295 0.823677
vt 0.778940 0.834528
vt 0.774828 0.802591
vt 0.772192 0.812666
vt 0.832632 0.821327
vt 0.810285 0.787862
vt 0.780522 0.794105
vt 0.789876 0.843376
vt 0.806290 0.847175
vt 0.799264 0.813430
vt 0.475664 0.291051
vt 0.503735 0.255769
vt 0.387009 0.387180
vt 0.417346 0.356504
vt 0.214391 0.525798
vt 0.252337 0.499766
vt 0.288358 0.472814
vt 0.322649 0.445073
vt 0.530943 0.218502
vt 0.446861 0.324549
vt 0.355445 0.416562
vt 0.557298 0.178956
vt 0.174231 0.550930
vt 0.254190 0.162019
vt 0.272271 0.136051
vt 0.190539 0.228924
vt 0.213396 0.208379
vt 0.048740 0.309036
vt 0.080954 0.295512
vt 0.288932 0.108188
vt 0.234589 0.186117
vt 0.111129 0.281002
vt 0.139437 0.265148
vt 0.165897 0.247823
vt 0.304300 0.078413
vt 0.318736 0.046565
vt 0.179359 0.033299
vt 0.182787 0.004895
vt 0.159210 0.097590
vt 0.167840 0.078762
vt 0.121084 0.140910
vt 0.135916 0.128667
vt 0.010904 0.172037
vt 0.039382 0.169406
vt 0.174507 0.057463
vt 0.148572 0.114186
vt 0.063666 0.165234
vt 0.085137 0.159169
vt 0.104198 0.151074
vt 0.087606 0.119498
vt 0.100689 0.112998
vt 0.132502 0.030768
vt 0.126923 0.008883
vt 0.128109 0.080115
vt 0.132483 0.065529
vt 0.112048 0.104118
vt 0.016447 0.116322
vt 0.038163 0.122508
vt 0.134113 0.049205
vt 0.121244 0.093012
vt 0.056543 0.124634
vt 0.072904 0.123462
vt 0.060391 0.096298
vt 0.070543 0.096675
vt 0.079626 0.094700
vt 0.087509 0.090942
vt 0.102496 0.041354
vt 0.095670 0.030430
vt 0.103542 0.071443
vt 0.105770 0.062419
vt 0.094190 0.085752
vt 0.038852 0.085687
vt 0.049581 0.092814
vt 0.105677 0.052259
vt 0.099565 0.079219
vt 0.084965 0.070128
vt 0.086697 0.066092
vt 0.065562 0.077265
vt 0.070228 0.078161
vt 0.074747 0.077713
vt 0.078830 0.076095
vt 0.084258 0.052410
vt 0.080543 0.048518
vt 0.087270 0.061587
vt 0.082258 0.073482
vt 0.057353 0.071072
vt 0.061139 0.074894
vt 0.086506 0.056897
vt 0.071792 0.062720
vn 0.258500 -0.050600 0.964700
vn -0.973600 -0.034200 0.225800
vn 0.706100 -0.053300 -0.706100
vn -0.258500 -0.047600 -0.964800
vn 0.706100 -0.053300 0.706100
vn -0.706400 -0.044900 0.706400
vn 0.258500 -0.050600 -0.964700
vn -0.706400 -0.044900 -0.706400
vn 0.959500 -0.049500 0.277200
vn -0.258500 -0.047600 0.964800
vn -0.973600 -0.034200 -0.225800
vn 0.959500 -0.049500 -0.277200
vn 0.250100 0.257200 -0.933400
vn -0.683300 0.257300 -0.683300
vn 0.933400 0.257200 0.250100
vn -0.250100 0.257200 0.933400
vn -0.949700 0.223000 -0.219700
vn 0.933400 0.257300 -0.250100
vn 0.250100 0.257300 0.933400
vn -0.949700 0.223000 0.219700
vn 0.683300 0.257300 -0.683300
vn -0.250100 0.257200 -0.933400
vn 0.683300 0.257200 0.683300
vn -0.683300 0.257300 0.683300
vn -0.547000 0.624700 0.557300
vn 0.206600 0.651600 -0.729900
vn -0.547000 0.624700 -0.557300
vn 0.721500 0.660100 0.208900
vn -0.189600 0.636800 0.747400
vn -0.758700 0.618000 -0.206000
vn 0.721500 0.660100 -0.208900
vn 0.206600 0.651600 0.729900
vn -0.758700 0.618000 0.206000
vn 0.533700 0.665100 -0.522300
vn -0.189600 0.636800 -0.747400
vn 0.533700 0.665100 0.522300
vn -0.277200 0.902500 0.329600
vn 0.154700 0.913400 -0.376500
vn -0.277200 0.902500 -0.329600
vn 0.357700 0.929000 0.095000
vn -0.058600 0.907200 0.416700
vn -0.417000 0.900200 -0.125700
vn 0.357700 0.929000 -0.095000
vn 0.154700 0.913400 0.376500
vn -0.417000 0.900200 0.125700
vn 0.303800 0.919500 -0.249400
vn -0.058600 0.907200 -0.416700
vn 0.303800 0.919500 0.249400
vn 0.187200 0.976900 0.102900
vn -0.019800 0.994300 0.104800
vn 0.122400 0.982400 -0.141400
vn -0.019800 0.994300 -0.104800
vn 0.224300 0.973800 0.037600
vn 0.046600 0.988700 0.142300
vn -0.058400 0.997500 -0.038500
vn 0.224300 0.973800 -0.037600
vn 0.122400 0.982400 0.141400
vn -0.058400 0.997500 0.038500
vn 0.187200 0.976900 -0.102900
vn 0.046600 0.988700 -0.142300
vn 0.064800 0.994900 -0.076600
vn 0.140800 0.988500 0.055700
vn 0.029200 0.998000 0.056300
vn 0.105700 0.991500 -0.076400
vn 0.029200 0.998000 -0.056300
vn 0.161000 0.986700 0.020400
vn 0.064800 0.994900 0.076600
vn 0.008600 0.999800 -0.020600
vn 0.161000 0.986700 -0.020400
vn 0.105700 0.991500 0.076400
vn 0.008600 0.999800 0.020600
vn 0.140800 0.988500 -0.055700
vn 0.257700 -0.092600 0.961800
vn -0.963300 -0.074100 0.258100
vn 0.703600 -0.099300 -0.703600
vn -0.257900 -0.084800 -0.962400
vn 0.703600 -0.099300 0.703600
vn -0.705000 -0.078000 0.705000
vn 0.257700 -0.092600 -0.961800
vn -0.705000 -0.078000 -0.705000
vn 0.949500 -0.103900 0.296200
vn -0.257900 -0.084800 0.962400
vn -0.963300 -0.074100 -0.258100
vn 0.949500 -0.103900 -0.296200
vn -0.257800 -0.086600 0.962300
vn -0.961600 -0.095000 -0.257600
vn 0.952100 -0.073100 -0.297000
vn 0.258000 -0.080500 0.962800
vn -0.961600 -0.095000 0.257600
vn 0.705100 -0.075200 -0.705100
vn -0.257800 -0.086600 -0.962300
vn 0.705100 -0.075200 0.705100
vn -0.704100 -0.091900 0.704100
vn 0.258000 -0.080500 -0.962800
vn -0.704100 -0.091900 -0.704100
vn 0.952100 -0.073100 0.297000
vn 0.948400 -0.114100 0.295800
vn -0.257200 -0.113300 0.959700
vn -0.959700 -0.113400 -0.257100
vn 0.948400 -0.114100 -0.295800
vn 0.257200 -0.113100 0.959700
vn -0.959700 -0.113400 0.257100
vn 0.702600 -0.113000 -0.702600
vn -0.257200 -0.113300 -0.959700
vn 0.702600 -0.113000 0.702600
vn -0.702500 -0.113300 0.702500
vn 0.257200 -0.113100 -0.959700
vn -0.702500 -0.113300 -0.702500
vn -0.689700 -0.220300 -0.689700
vn 0.948300 -0.114700 0.295800
vn -0.254000 -0.192000 0.948000
vn -0.938500 -0.236400 -0.251500
vn 0.948300 -0.114700 -0.295800
vn 0.255500 -0.158600 0.953700
vn -0.938500 -0.236400 0.251500
vn 0.701200 -0.129300 -0.701200
vn -0.254000 -0.192000 -0.948000
vn 0.701200 -0.129300 0.701200
vn -0.689700 -0.220300 0.689700
vn 0.255500 -0.158600 -0.953700
vn 0.237400 -0.589500 -0.772100
vn -0.577000 -0.551400 -0.602600
vn 0.744000 -0.630500 0.221300
vn -0.187100 -0.567400 0.801900
vn -0.809200 -0.543400 -0.223300
vn 0.744000 -0.630500 -0.221300
vn 0.237400 -0.589500 0.772100
vn -0.809200 -0.543400 0.223300
vn 0.575500 -0.611800 -0.542600
vn -0.187100 -0.567400 -0.801900
vn 0.575500 -0.611800 0.542600
vn -0.577000 -0.551400 0.602600
vn -0.447000 -0.708500 0.546100
vn 0.291500 -0.590100 -0.752900
vn -0.447000 -0.708500 -0.546100
vn 0.829500 -0.507600 0.232700
vn -0.105900 -0.653800 0.749200
vn -0.642600 -0.739800 -0.199400
vn 0.829500 -0.507600 -0.232700
vn 0.291500 -0.590100 0.752900
vn -0.642600 -0.739800 0.199400
vn 0.638900 -0.534300 -0.553500
vn -0.105900 -0.653800 -0.749200
vn 0.638900 -0.534300 0.553500
vn -0.464700 -0.685700 0.560300
vn 0.292700 -0.568100 -0.769200
vn -0.464700 -0.685700 -0.560300
vn 0.840700 -0.486800 0.237100
vn -0.114100 -0.631300 0.767100
vn -0.666300 -0.717000 -0.204800
vn 0.840700 -0.486800 -0.237100
vn 0.292700 -0.568100 0.769200
vn -0.666300 -0.717000 0.204800
vn 0.646700 -0.513100 -0.564400
vn -0.114100 -0.631300 -0.767100
vn 0.646700 -0.513100 0.564400
usemtl Material.001
s off
f 8/1/1 20/2/1 19/3/1 7/4/1
f 5/5/2 17/6/2 16/7/2 4/8/2
f 12/9/3 24/10/3 23/11/3 11/12/3
f 2/13/4 14/14/4 13/15/4 1/16/4
f 9/17/5 21/18/5 20/2/5 8/1/5
f 6/19/6 18/20/6 17/6/6 5/5/6
f 1/16/7 13/15/7 24/10/7 12/9/7
f 3/21/8 15/22/8 14/14/8 2/13/8
f 10/23/9 22/24/9 21/18/9 9/17/9
f 7/4/10 19/3/10 18/20/10 6/19/10
f 4/8/11 16/7/11 15/22/11 3/21/11
f 11/12/12 23/11/12 22/25/12 10/26/12
f 24/10/13 13/15/13 25/27/13 36/28/13
f 14/14/14 15/22/14 27/29/14 26/30/14
f 21/18/15 22/24/15 34/31/15 33/32/15
f 18/20/16 19/3/16 31/33/16 30/34/16
f 15/22/17 16/7/17 28/35/17 27/29/17
f 22/25/18 23/11/18 35/36/18 34/37/18
f 19/3/19 20/2/19 32/38/19 31/33/19
f 16/7/20 17/6/20 29/39/20 28/35/20
f 23/11/21 24/10/21 36/28/21 35/36/21
f 13/15/22 14/14/22 26/30/22 25/27/22
f 20/2/23 21/18/23 33/32/23 32/38/23
f 17/6/24 18/20/24 30/34/24 29/39/24
f 29/39/25 30/34/25 42/40/25 41/41/25
f 36/28/26 25/27/26 37/42/26 48/43/26
f 26/30/27 27/29/27 39/44/27 38/45/27
f 33/32/28 34/31/28 46/46/28 45/47/28
f 30/34/29 31/33/29 43/48/29 42/40/29
f 27/29/30 28/35/30 40/49/30 39/44/30
f 34/37/31 35/36/31 47/50/31 46/51/31
f 31/33/32 32/38/32 44/52/32 43/48/32
f 28/35/33 29/39/33 41/41/33 40/49/33
f 35/36/34 36/28/34 48/43/34 47/50/34
f 25/27/35 26/30/35 38/45/35 37/42/35
f 32/38/36 33/32/36 45/47/36 44/52/36
f 41/41/37 42/40/37 54/53/37 53/54/37
f 48/43/38 37/42/38 49/55/38 60/56/38
f 38/45/39 39/44/39 51/57/39 50/58/39
f 45/47/40 46/46/40 58/59/40 57/60/40
f 42/40/41 43/48/41 55/61/41 54/53/41
f 39/44/42 40/49/42 52/62/42 51/57/42
f 46/51/43 47/50/43 59/63/43 58/64/43
f 43/48/44 44/52/44 56/65/44 55/61/44
f 40/49/45 41/41/45 53/54/45 52/62/45
f 47/50/46 48/43/46 60/56/46 59/63/46
f 37/42/47 38/45/47 50/58/47 49/55/47
f 44/52/48 45/47/48 57/60/48 56/65/48
f 56/65/49 57/60/49 69/66/49 68/67/49
f 53/54/50 54/53/50 66/68/50 65/69/50
f 60/56/51 49/55/51 61/70/51 72/71/51
f 50/58/52 51/57/52 63/72/52 62/73/52
f 57/60/53 58/59/53 70/74/53 69/66/53
f 54/53/54 55/61/54 67/75/54 66/68/54
f 51/57/55 52/62/55 64/76/55 63/72/55
f 58/64/56 59/63/56 71/77/56 70/78/56
f 55/61/57 56/65/57 68/67/57 67/75/57
f 52/62/58 53/54/58 65/69/58 64/76/58
f 59/63/59 60/56/59 72/71/59 71/77/59
f 49/55/60 50/58/60 62/73/60 61/70/60
f 61/70/61 62/73/61 73/79/61
f 68/67/62 69/66/62 73/79/62
f 65/69/63 66/68/63 73/79/63
f 72/71/64 61/70/64 73/79/64
f 62/73/65 63/72/65 73/79/65
f 69/66/66 70/74/66 73/79/66
f 66/68/67 67/75/67 73/79/67
f 63/72/68 64/76/68 73/79/68
f 70/78/69 71/77/69 73/79/69
f 67/75/70 68/67/70 73/79/70
f 64/76/71 65/69/71 73/79/71
f 71/77/72 72/71/72 73/79/72
f 8/1/73 7/4/73 80/80/73 81/81/73
f 5/5/74 4/8/74 77/82/74 78/83/74
f 12/9/75 11/12/75 84/84/75 85/85/75
f 2/13/76 1/16/76 74/86/76 75/87/76
f 9/17/77 8/1/77 81/81/77 82/88/77
f 6/19/78 5/5/78 78/83/78 79/89/78
f 1/16/79 12/9/79 85/85/79 74/86/79
f 3/21/80 2/13/80 75/87/80 76/90/80
f 10/23/81 9/17/81 82/88/81 83/91/81
f 7/4/82 6/19/82 79/89/82 80/80/82
f 4/8/83 3/21/83 76/90/83 77/82/83
f 11/12/84 10/26/84 83/92/84 84/84/84
f 80/80/85 79/89/85 91/93/85 92/94/85
f 77/82/86 76/90/86 88/95/86 89/96/86
f 84/84/87 83/92/87 95/97/87 96/98/87
f 81/81/88 80/80/88 92/94/88 93/99/88
f 78/83/89 77/82/89 89/96/89 90/100/89
f 85/85/90 84/84/90 96/98/90 97/101/90
f 75/87/91 74/86/91 86/102/91 87/103/91
f 82/88/92 81/81/92 93/99/92 94/104/92
f 79/89/93 78/83/93 90/100/93 91/93/93
f 74/86/94 85/85/94 97/101/94 86/102/94
f 76/90/95 75/87/95 87/103/95 88/95/95
f 83/91/96 82/88/96 94/104/96 95/105/96
f 95/105/97 94/104/97 106/106/97 107/107/97
f 92/94/98 91/93/98 103/108/98 104/109/98
f 89/96/99 88/95/99 100/110/99 101/111/99
f 96/98/100 95/97/100 107/112/100 108/113/100
f 93/99/101 92/94/101 104/109/101 105/114/101
f 90/100/102 89/96/102 101/111/102 102/115/102
f 97/101/103 96/98/103 108/113/103 109/116/103
f 87/103/104 86/102/104 98/117/104 99/118/104
f 94/104/105 93/99/105 105/114/105 106/106/105
f 91/93/106 90/100/106 102/115/106 103/108/106
f 86/102/107 97/101/107 109/116/107 98/117/107
f 88/95/108 87/103/108 99/118/108 100/110/108
f 100/110/109 99/118/109 111/119/109 112/120/109
f 107/107/110 106/106/110 118/121/110 119/122/110
f 104/109/111 103/108/111 115/123/111 116/124/111
f 101/111/112 100/110/112 112/120/112 113/125/112
f 108/113/113 107/112/113 119/126/113 120/127/113
f 105/114/114 104/109/114 116/124/114 117/128/114
f 102/115/115 101/111/115 113/125/115 114/129/115
f 109/116/116 108/113/116 120/127/116 121/130/116
f 99/118/117 98/117/117 110/131/117 111/119/117
f 106/106/118 105/114/118 117/128/118 118/121/118
f 103/108/119 102/115/119 114/129/119 115/123/119
f 98/117/120 109/116/120 121/130/120 110/131/120
f 110/131/121 121/130/121 133/132/121 122/133/121
f 112/120/122 111/119/122 123/134/122 124/135/122
f 119/122/123 118/121/123 130/136/123 131/137/123
f 116/124/124 115/123/124 127/138/124 128/139/124
f 113/125/125 112/120/125 124/135/125 125/140/125
f 120/127/126 119/126/126 131/141/126 132/142/126
f 117/128/127 116/124/127 128/139/127 129/143/127
f 114/129/128 113/125/128 125/140/128 126/144/128
f 121/130/129 120/127/129 132/142/129 133/132/129
f 111/119/130 110/131/130 122/133/130 123/134/130
f 118/121/131 117/128/131 129/143/131 130/136/131
f 115/123/132 114/129/132 126/144/132 127/138/132
f 127/138/133 126/144/133 138/145/133 139/146/133
f 122/133/134 133/132/134 145/147/134 134/148/134
f 124/135/135 123/134/135 135/149/135 136/150/135
f 131/137/136 130/136/136 142/151/136 143/152/136
f 128/139/137 127/138/137 139/146/137 140/153/137
f 125/140/138 124/135/138 136/150/138 137/154/138
f 132/142/139 131/141/139 143/155/139 144/156/139
f 129/143/140 128/139/140 140/153/140 141/157/140
f 126/144/141 125/140/141 137/154/141 138/145/141
f 133/132/142 132/142/142 144/156/142 145/147/142
f 123/134/143 122/133/143 134/148/143 135/149/143
f 130/136/144 129/143/144 141/157/144 142/151/144
f 139/146/145 138/145/145 146/158/145
f 134/148/146 145/147/146 146/158/146
f 136/150/147 135/149/147 146/158/147
f 143/152/148 142/151/148 146/158/148
f 140/153/149 139/146/149 146/158/149
f 137/154/150 136/150/150 146/158/150
f 144/156/151 143/155/151 146/158/151
f 141/157/152 140/153/152 146/158/152
f 138/145/153 137/154/153 146/158/153
f 145/147/154 144/156/154 146/158/154
f 135/149/155 134/148/155 146/158/155
f 142/151/156 141/157/156 146/158/156
